<?xml version="1.0" encoding="UTF-8"?>
<svg xmlns="http://www.w3.org/2000/svg" xmlns:xlink="http://www.w3.org/1999/xlink" width="0" height="0">
<symbol id="icon_inst" viewBox="0 0 46 46" fill="none"><path fill="#fff" fill-rule="evenodd" d="M32.833.875H13.167C6.378.875.875 6.378.875 13.167v19.666c0 6.789 5.503 12.292 12.292 12.292h19.666c6.789 0 12.292-5.503 12.292-12.292V13.167c0-6.789-5.503-12.292-12.292-12.292Zm7.99 31.958a8.014 8.014 0 0 1-7.99 7.99H13.167a8.014 8.014 0 0 1-7.99-7.99V13.167a8.014 8.014 0 0 1 7.99-7.99h19.666a8.014 8.014 0 0 1 7.99 7.99v19.666Zm-6.146-19.052a2.458 2.458 0 1 0 0-4.916 2.458 2.458 0 0 0 0 4.916ZM23 11.937c-6.11 0-11.063 4.953-11.063 11.063S16.89 34.063 23 34.063 34.063 29.11 34.063 23A11.037 11.037 0 0 0 23 11.937ZM16.24 23a6.76 6.76 0 1 0 13.52 0 6.76 6.76 0 0 0-13.52 0Z" clip-rule="evenodd"/></symbol>
<symbol id="icon_linkedin" viewBox="0 0 46 46" fill="none"><path fill="#fff" fill-rule="evenodd" d="M5.792.875h34.416a4.917 4.917 0 0 1 4.917 4.917v34.416a4.917 4.917 0 0 1-4.917 4.917H5.792a4.917 4.917 0 0 1-4.917-4.917V5.792A4.917 4.917 0 0 1 5.792.875Zm7.375 36.875c.678 0 1.229-.55 1.229-1.23V19.313c0-.678-.55-1.229-1.23-1.229H9.48c-.679 0-1.229.55-1.229 1.23V36.52c0 .679.55 1.229 1.23 1.229h3.687Zm-1.844-22.125a3.687 3.687 0 1 1 0-7.375 3.687 3.687 0 0 1 0 7.375ZM36.52 37.75c.679 0 1.229-.55 1.229-1.23V25.213a7.62 7.62 0 0 0-6.687-7.719 7.375 7.375 0 0 0-6.834 3.295v-1.476c0-.678-.55-1.229-1.229-1.229h-3.688c-.678 0-1.229.55-1.229 1.23V36.52c0 .679.55 1.229 1.23 1.229H23c.679 0 1.23-.55 1.23-1.23v-9.218a3.688 3.688 0 0 1 7.374 0v9.219c0 .679.55 1.229 1.23 1.229h3.687Z" clip-rule="evenodd"/></symbol>
<symbol id="logo" viewBox="0 0 654 46" fill="none"><path fill="#445C75" d="M42.931 4.794 6.533 40.714h36.398v3.71H0v-3.218L36.325 5.303H1.061V1.576h41.87v3.218ZM52.758 28.927V1.576h4.703v26.727c0 8.57 5.966 12.985 17.22 12.985 11.255 0 17.276-4.416 17.276-12.985V1.576h4.575v27.285c0 10.392-7.87 16.318-21.85 16.318-13.981 0-21.924-5.86-21.924-16.269v.017ZM149.235 4.794l-36.398 35.92h36.398v3.71h-42.931v-3.218l36.325-35.903h-35.264V1.576h41.87v3.218ZM194.839 32.276h-27.615l-6.46 12.164h-4.996l22.967-42.864h4.776l22.966 42.864h-5.124l-6.533-12.164h.019Zm-25.657-3.727h23.68L181.059 6.173l-11.877 22.376ZM255.777.755 225.253 23.41V.755h-8.144v44.506h8.144V31.964l13.322-9.85 18.812 23.147h9.992l-22.6-27.794L267.434.756h-11.657ZM320.174 14.184c0-8.537-6.021-13.429-16.506-13.429h-29.573v44.506h8.162V27.613h17.019l14.182 17.648h9.919L308.7 27.186c7.412-1.428 11.474-5.992 11.474-13.002Zm-8.29 0c0 4.679-2.983 6.862-9.406 6.862h-20.239V7.322h20.239c6.423 0 9.406 2.183 9.406 6.862ZM356.939.755h-7.558l-23.424 44.506h8.619l5.911-11.278h25.034l5.893 11.278h8.912l-23.131-44.03-.256-.476Zm5.233 26.661h-18.281l9.168-17.714 9.113 17.714ZM409.13 19.29c-12.28-.755-14.75-2.742-14.75-5.73 0-4.219 4.721-6.747 12.645-6.747 6.57 0 12.151 1.494 16.598 4.433l.842.558 3.697-6.058-.641-.427C422.123 1.79 415.388 0 407.519 0c-13.413 0-21.429 5.138-21.429 13.74 0 8.144 6.259 11.821 21.576 12.724 12.279.755 14.749 2.758 14.749 5.73 0 4.645-4.794 6.993-14.255 6.993-7.393 0-14.329-2.003-19.526-5.631l-.824-.575-3.952 6.025.622.444c6.002 4.219 14.383 6.534 23.607 6.534 14.585 0 22.618-4.975 22.618-13.988 0-8.142-6.258-11.82-21.575-12.723v.017ZM476.583 27.925c0 7.486-5.032 11.278-14.969 11.278s-14.97-3.792-14.97-11.278V.755h-8.161v28.106c0 10.9 8.399 17.139 23.039 17.139 14.64 0 22.967-6.271 22.967-17.205V.755h-7.943v27.17h.037ZM517.044 19.29c-12.279-.755-14.75-2.742-14.75-5.73 0-4.219 4.722-6.747 12.645-6.747 6.57 0 12.152 1.494 16.598 4.433l.842.558 3.697-6.058-.641-.427C530.037 1.79 523.302 0 515.434 0c-13.414 0-21.43 5.138-21.43 13.74 0 8.144 6.259 11.821 21.576 12.724 12.279.755 14.75 2.758 14.75 5.73 0 4.645-4.795 6.993-14.256 6.993-7.393 0-14.329-2.003-19.526-5.631l-.823-.575-3.953 6.025.622.444c6.002 4.219 14.384 6.534 23.607 6.534 14.585 0 22.618-4.975 22.618-13.988 0-8.142-6.258-11.82-21.575-12.723v.017ZM585.851.755 555.346 23.41V.755h-8.162v44.506h8.162V31.964l13.322-9.85L587.48 45.26h9.992l-22.619-27.794L597.527.756h-11.676ZM630.851 1.231l-.257-.476h-7.557l-23.424 44.506h8.637l5.893-11.278h25.034l5.911 11.278H654l-23.168-44.03h.019Zm4.977 26.185h-18.281l9.168-17.714 9.113 17.714Z"/></symbol>


<symbol id="next-btn" viewBox="0 0 26 16" fill="none"><path fill="#fff" d="M1 7a1 1 0 0 0 0 2V7Zm24.707 1.707a1 1 0 0 0 0-1.414L19.343.929a1 1 0 1 0-1.414 1.414L23.586 8l-5.657 5.657a1 1 0 0 0 1.414 1.414l6.364-6.364ZM1 8v1h24V7H1v1Z"/></symbol>
<symbol id="qualityMark_icon" viewBox="0 0 50 65" fill="none"><g fill="#445C75" clip-path="url(#a)"><path d="m34.815 1.918 2.385 4.62 5.424.711.568 5.067 4.718 2.897-1.413 5.261 3.311 4.084-3.305 4.311 1.413 5.035-4.728 2.895-.526 5.325-5.286.529-2.735 4.691-4.964-1.389-4.453 3.188-4.231-3.188-4.964 1.39-2.74-4.69-5.262-.555-.77-5.504-4.518-2.37L4.16 28.85.872 24.557l3.275-4.283-1.408-5.046 4.508-2.71.96-5.418 5.074-.636 2.682-4.548 5.163 1.367L25.406 0l4.057 3.172 5.352-1.254Zm7.521 22.68c0-9.474-7.625-17.152-17.03-17.152-9.404 0-17.031 7.678-17.031 17.152s7.625 17.153 17.03 17.153c9.404 0 17.029-7.68 17.029-17.153h.002Z"/><path d="m20.47 64.894-5.433-6.82-8.725 2.137 5.075-15.324 3.368 5.434 5.818-1.603 4.032 3.194-4.136 12.982ZM30.216 64.894l5.43-6.82 8.726 2.137-5.074-15.324-3.368 5.434-5.818-1.603-4.032 3.194 4.136 12.982ZM28.08 15.727v17.667h-4.862v-12.56h-2.324v-5.107h7.186Z"/></g><defs><clipPath><path fill="#fff" d="M.872 0h48.936v64.894H.872z"/></clipPath></defs></symbol>
<symbol id="redClose_icon" viewBox="0 0 22 22" fill="none"><path fill="#E61D38" d="M0 0h22v22H0z"/><path stroke="#fff" stroke-linecap="round" stroke-width="2" d="M5 17 17 5M5 5l12 12"/></symbol>
<symbol id="search_toggle" viewBox="0 0 20 20" fill="none"><path fill="#445C75" d="M14.294 12.579h-.904l-.32-.31a7.4 7.4 0 0 0 1.796-4.836 7.433 7.433 0 1 0-7.433 7.433 7.4 7.4 0 0 0 4.837-1.796l.309.32v.904L18.296 20 20 18.296l-5.706-5.717Zm-6.861 0a5.139 5.139 0 0 1-5.146-5.146 5.139 5.139 0 0 1 5.146-5.146 5.139 5.139 0 0 1 5.146 5.146 5.139 5.139 0 0 1-5.146 5.146Z"/></symbol>
<symbol id="theme-toggle"  viewBox="0 0 20 20"  fill="none"><path fill="#445C75" stroke="#445C75" d="M19.5 19.5H1.207L19.5 1.207V19.5Z"/><path stroke="#445C75" stroke-opacity=".3" d="M.5.5h18.293L.5 18.793V.5Z"/></symbol>
<symbol id="blue-icon_facebook"  viewBox="0 0 25 45"  fill="none"><path fill="#445C75" d="M23.624 7.75h-7.375a2.458 2.458 0 0 0-2.458 2.458v7.375h9.833a.86.86 0 0 1 .836 1.131l-1.82 5.409a1.23 1.23 0 0 1-1.155.835h-7.694v18.438c0 .679-.55 1.229-1.23 1.229H6.416a1.23 1.23 0 0 1-1.23-1.23V24.959H1.5a1.23 1.23 0 0 1-1.23-1.229v-4.916c0-.68.551-1.23 1.23-1.23h3.687v-7.375c0-5.43 4.403-9.833 9.834-9.833h8.604c.679 0 1.23.55 1.23 1.23V6.52c0 .679-.551 1.229-1.23 1.229Z"/></symbol>
<symbol id="blue-icon_inst"  viewBox="0 0 46 45"  fill="none"><path fill="#445C75" fill-rule="evenodd" d="M32.895.375H13.228C6.44.375.937 5.878.937 12.667v19.666c0 6.789 5.503 12.292 12.291 12.292h19.667c6.788 0 12.291-5.503 12.291-12.292V12.667c0-6.789-5.503-12.292-12.291-12.292Zm7.99 31.958a8.014 8.014 0 0 1-7.99 7.99H13.228a8.014 8.014 0 0 1-7.99-7.99V12.667a8.014 8.014 0 0 1 7.99-7.99h19.667a8.014 8.014 0 0 1 7.99 7.99v19.666Zm-6.146-19.052a2.458 2.458 0 1 0 0-4.916 2.458 2.458 0 0 0 0 4.916Zm-11.677-1.844c-6.11 0-11.063 4.953-11.063 11.063s4.953 11.063 11.062 11.063c6.11 0 11.063-4.953 11.063-11.063a11.037 11.037 0 0 0-11.063-11.063ZM16.301 22.5a6.76 6.76 0 1 0 13.52 0 6.76 6.76 0 0 0-13.52 0Z" clip-rule="evenodd"/></symbol>
<symbol id="blue-icon_linkedin"  viewBox="0 0 45 45"  fill="none"><path fill="#445C75" fill-rule="evenodd" d="M5.353.375H39.77a4.917 4.917 0 0 1 4.916 4.917v34.416a4.917 4.917 0 0 1-4.916 4.917H5.353a4.917 4.917 0 0 1-4.916-4.917V5.292A4.917 4.917 0 0 1 5.353.375Zm7.375 36.875c.679 0 1.23-.55 1.23-1.23V18.813c0-.678-.551-1.229-1.23-1.229H9.041c-.68 0-1.23.55-1.23 1.23V36.02c0 .679.55 1.229 1.23 1.229h3.687Zm-1.844-22.125a3.687 3.687 0 1 1 0-7.375 3.687 3.687 0 0 1 0 7.375ZM36.082 37.25c.68 0 1.23-.55 1.23-1.23V24.713a7.62 7.62 0 0 0-6.687-7.719 7.375 7.375 0 0 0-6.834 3.295v-1.476c0-.678-.55-1.229-1.23-1.229h-3.687c-.679 0-1.23.55-1.23 1.23V36.02c0 .679.551 1.229 1.23 1.229h3.688c.678 0 1.229-.55 1.229-1.23v-9.218a3.688 3.688 0 0 1 7.375 0v9.219c0 .679.55 1.229 1.229 1.229h3.687Z" clip-rule="evenodd"/></symbol>
<symbol id="burger_icon"  viewBox="0 0 32 24"  fill="none"><path stroke="#445C75" stroke-linecap="round" stroke-width="4" d="M29.692 2H2M29.692 12H2M29.692 22H2"/></symbol>
<symbol id="close_menu"  viewBox="0 0 26 26"  fill="none"><path stroke="#fff" stroke-linecap="round" stroke-width="4" d="M24 23 2 3M24 3 2 23"/></symbol>
<symbol id="ecoFriendly_icon"  viewBox="0 0 47 52" fill="none"><g clip-path="url(#a)"><path fill="#445C75" d="M43.384 10.066c.079.01.105-.065.077-.228-.787-2.135-1.913-3.965-3.53-5.59.64-.102 1.478.2 2.07.458 3.06 1.336 4.753 5.091 4.533 8.291-.09 1.333-.59 2.994-1.384 4.066-.02-.627-.341-1.287-.659-1.819-1.968-3.296-7.01-3.331-6.713-8.26.016-.26.26-1.095.226-1.201-.152-.464-4.387-2.335-5.075-2.581C15.574-3.01-1.47 12.646 3.915 30.204 8.268 44.39 24.9 49.638 37.55 42.314c.75-.434.747-.576-.077-.304-.45.166-.91.318-1.381.457-5.506 1.373-14.732 2.403-19.64-1.035-.21-.146-.35-.11-.257-.388.253-.752 1.744-2.15 2.405-2.64 6.457-4.786 14.893-1.23 22.203-2.26 1.99-.282 4.247-.997 5-3.032.72 5.164-2.197 10.285-5.947 13.653-5.806 5.213-17.67 6.346-22.781-.32-.11-.14-.387-.67-.45-.713-.273-.19-1.285-.479-1.689-.666C-.98 37.735-4.256 16.864 9.273 5.506c10.269-8.623 26.924-7.13 34.114 4.562l-.002-.002Z"/><path fill="#445C75" d="M28.8 33.263c-.444.19-1.38.284-1.758-.044-.155-.136-.402-.702-.522-.928-.335-.64-.625-1.314-.927-1.971l-.093.015v3.08h-1.112c-.192 0-.326-.321-.347-.493-.165-1.36.129-3.022-.003-4.417.07-.577 1.45-.523 1.81-.187.227.213.911 1.712 1.1 2.103.146.303.27.629.396.94.203-.009 0-.298 0-.342v-2.928c.267-.099 1.458-.1 1.458.266v4.906h-.001ZM22.93 28.167c.267.087.21 1.14-.154 1.14h-2.034v.837h1.996c.109.251.17 1.141-.192 1.141h-1.804v.913h2.188c.178 0 .425 1.065-.17 1.2-.385.088-2.299.067-2.747.017-.528-.06-.748-.36-.806-.875-.09-.803-.081-2.685 0-3.498.025-.245.192-.877.497-.877h3.224l.002.002ZM10.38 28.167c.02.012.136.396.14.438.04.344-.176.78-.561.78H8.155v.912h1.919c.64 1.658-.855 1.144-1.92 1.217v1.901c-.58-.076-1.419.285-1.53-.499-.176-1.258.117-2.876 0-4.174-.021-.176.374-.575.495-.575.425 0 3.127-.09 3.262 0ZM35.785 28.091c.427-.035.877-.15 1.285.052.089.044.25.37.25.442v3.613h1.957c.183 0 .373 1.093-.169 1.199-.406.079-2.242.079-2.666.013-.248-.038-.657-.301-.657-.566v-4.753ZM16.598 28.091c.713-.04 1.453-.289 1.54.642.131 1.442-.099 3.092-.016 4.557-.07.207-1.131.161-1.325.041-.055-.033-.2-.217-.2-.259v-4.981ZM41.388 29.688c.21.528.387.554.538.076.158-.257.578-1.472.664-1.527.326-.208 1.228-.208 1.374.23.146.438-.141.891-.336 1.273-.238.465-1.02 1.48-1.13 1.847-.115.384.062 1.572-.069 1.756-2.1.466-1.223-.725-1.537-1.758-.1-.335-.755-1.162-.976-1.542-.127-.22-.756-1.318-.752-1.46.005-.19.356-.42.531-.46.998-.231 1.337.852 1.693 1.565ZM30.933 28.036c1.61-.19 3.534.095 3.913 1.937.353 1.71-.451 3.346-2.324 3.516-.775.07-2.479.15-2.574-.87-.12-1.293.083-2.78.02-4.094.084-.362.645-.452.964-.49l.001.001Z"/><path fill="#FDFDFD" d="M31.487 32.274v-3.042c1.184-.15 1.845.364 1.847 1.56 0 1.148-.75 1.616-1.847 1.482Z"/><path fill="#445C75" d="M12.76 33.415h-1.113c-.302 0-.399-.566-.42-.8-.075-.834-.12-3.173.003-3.949.123-.776 1.96-.71 2.566-.65 1.922.19 2.457 2.287.888 3.385.19.268 1.096 1.258 1.06 1.503-.072.496-.8.686-1.235.491-.588-.263-.87-1.39-1.244-1.658-.147-.106-.505-.096-.505.043v1.635Z"/><path fill="#F9F9F9" d="M12.76 29.232c1.763-.29 1.71 1.53 0 1.293v-1.293Z"/><path fill="#445C75" d="M16.214 13.565v2.662h-6.14v2.053h5.45v2.51h-5.45v2.206h6.255c.008 0 .115.106.115.114v2.547H6.62V13.565h9.594ZM27.43 17.51c-.015-.008-.098-.208-.198-.297-3.04-2.752-7.253.199-5.683 3.957.91 2.177 3.697 2.423 5.447 1.065.164-.128.476-.587.654-.497l2.067 1.916c-2.057 2.667-6.522 2.95-9.245 1.172-3.864-2.527-3.606-8.53.499-10.689 2.681-1.41 6.933-1.097 8.75 1.516l-2.028 1.797c-.068.062-.183.108-.263.062v-.001ZM36.154 13.36c4.68-.472 8.673 2.71 7.732 7.585-1.199 6.208-10.903 6.75-13.09.95-1.49-3.948 1.16-8.112 5.358-8.537v.002Z"/><path fill="#FEFEFE" d="M36.766 16.172c4.87-.573 5.034 7.326.057 6.898-3.814-.327-3.963-6.437-.057-6.898Z"/></g><defs><clipPath><path fill="#fff" d="M.809 0h45.745v51.064H.809z"/></clipPath></defs></symbol>
<symbol id="handMade_icon"  viewBox="0 0 48 48"  fill="none"><g fill="#445C75" clip-path="url(#a)"><path d="M14.439 42.83c1.384-1.138 1.716-.693 3.341-.931 3.21-.47 4.938-2.137 7.165-4.268 2.802-2.683 5.43-5.587 8.233-8.26 1.061-1.357-.703-2.997-1.965-1.835l-5.982 5.815-.364-.058c-.406-.253-.279-.727.027-1.008l9.555-9.576c.522-1-.619-2.261-1.676-1.917l-9.097 8.815c-.551.029-.816-.406-.535-.873l9.637-9.617c.934-1.426-1.095-2.918-2.224-1.621-2.16 2.11-4.216 4.335-6.365 6.45-.395.39-3.046 3.007-3.267 3.01-.477 0-.732-.7-.354-1.037l7.566-7.475c1.17-1.2-.351-3.008-1.728-2.089l-9.232 9.051c-1.182-.252-.15-1.438.134-2.143.434-1.076.732-2.084.518-3.277-.15-.818-1.107-1.494-1.892-.986-.29.187-1.404 2.182-1.762 2.687-2.348 3.318-4.75 4.691-5.79 9.01-.327 1.36-.21 3.515-.898 4.516-.299.43-2.27 2.447-2.684 2.73-.101.07-.125.164-.301.118-7.983-11.254-5.07-26.847 6.58-34.257 19.017-12.1 42.775 6.667 35.423 28.065-4.764 13.872-21.336 20.214-34.184 12.989.696-.695 1.358-1.405 2.118-2.03l.003.002ZM32.78 26.152c1.558.44 2.328 2.255 1.425 3.652-3.452 3.203-6.634 7.093-10.149 10.187-1.396 1.23-3.12 2.326-4.954 2.747-1.071.246-2.54.128-3.421.431-.18.063-1.415 1.232-1.437 1.33-.039.171.091.205.204.272.752.455 2.742 1.059 3.645 1.29C39.535 51.58 55.62 26.436 41.442 9.374 27.195-7.766-.978 3.987 1.124 26.092c.337 3.546 1.622 7.381 3.669 10.285l1.995-2.093c.176-2.209.494-4.28 1.38-6.32 1.235-2.849 3.534-4.627 5.279-7.114 1.079-1.535 1.885-4.223 4.304-2.712.821.513 1.279 1.612 1.293 2.558.01.512-.286 1.085-.169 1.61l6.498-6.5c1.427-1.407 3.498-.832 4.22.97.643-.194.773-.73 1.572-.834 2.203-.29 3.604 1.907 2.578 3.837 1.44.277 2.273 1.898 1.743 3.248-.404 1.037-1.971 1.937-2.588 2.827-.07.1-.168.118-.118.3v-.002Z"/><path d="m26.975 3.566.27 3.7c.274.058.192-.027.271-.154.366-.597 1.149-2.654 1.587-2.986.325-.245 1.074.185 1.505.14l-.718 5.408-.968-.173-.12-.25.607-3.787-2.044 3.556-.949-.265-.137-3.772c-.308-.053-.217.048-.294.24-.382.953-.471 2.372-.85 3.373l-1.013-.134 1.329-5.149 1.524.253ZM15.79 5l2.554 4.607c-.351.19-.825.63-1.24.527L13.523 7.99l1.791 3.094c.138.335-.66.686-.869.626L11.83 7.095l1.334-.62 3.365 2.117-1.687-3.078c-.024-.214.775-.618.948-.514ZM38.62 9.462c1.74 1.43 3.203 3.946.697 5.483-2.22 1.362-3.721-.433-4.843-2.187l4.145-3.296Zm-2.307 4.259c1.663 1.7 4.554-1.023 2.489-2.793-.127-.063-.255.072-.354.137-.28.178-2.41 1.835-2.487 1.975-.098.178.227.553.354.68h-.002ZM19.753 3.693c1.72-.21 3.324.221 3.514 2.194.188 1.959-.792 2.892-2.619 3.275-.34.072-1.56.348-1.692-.049l-.848-4.903c.049-.19 1.382-.483 1.645-.515v-.002Zm.281 4.523c3.164.229 2.37-4.87-.623-3.4l.623 3.4ZM10.621 15.939c-.08 1.985-1.418.486-2.508.358l-.73 1.913 1.991.842-.486 1.076-4.877-2.036.438-1.09c.404-.086 1.247.587 1.678.614.573.036.736-1.297 1.004-1.735l-1.787-.806c-.122-.173.212-.996.429-1.06l4.846 1.924h.002ZM10.754 15.689 8 11.029c-.075-.294.732-1.114 1.004-1.321l5.116 2.435-.805.762c-.594.073-1.092-.726-1.608-.29-.098.083-.71.88-.712.966-.017.652 1.396 1.167-.241 2.108Zm.359-3.847L9.187 11l.968 1.677c.26.18 1.068-.681.955-.835h.003ZM34.223 12.44c-.036.046-.975-.521-1.026-.603-.221-.359.342-.967.166-1.482-.038-.11-.763-.6-.907-.667-.768-.349-.96.693-1.418.703l-.905-.544 4.254-3.64 1.237.871-1.399 5.36-.002.003Zm-.361-3.007.481-1.924c-.096-.123-1.333 1.118-1.435 1.28-.05.281.86.712.954.644ZM42.644 15.092c.062.515 1.223 2.705 1.037 3.005-1.288.917-.994-.851-1.584-1.576l-1.004.445.607 1.778c-.01.056-.5.284-.58.296-.542.08-.73-1.354-.997-1.787-.272.166-.667.185-.927.334-.664.383.503 1.617.443 2.307l-.958.246-1.078-3.24 5.045-1.808h-.005Z"/></g><defs><clipPath><path fill="#fff" d="M0 0h47.873v47.872H0z"/></clipPath></defs></symbol>
<symbol id="icon_facebok"  viewBox="0 0 26 46"  fill="none"><path fill="#fff" d="M24.063 8.25h-7.375a2.458 2.458 0 0 0-2.459 2.458v7.375h9.834a.86.86 0 0 1 .835 1.131l-1.819 5.409a1.23 1.23 0 0 1-1.155.835h-7.695v18.438c0 .679-.55 1.229-1.229 1.229H6.854a1.23 1.23 0 0 1-1.229-1.23V25.459H1.938a1.23 1.23 0 0 1-1.23-1.229v-4.916c0-.68.55-1.23 1.23-1.23h3.687v-7.375c0-5.43 4.403-9.833 9.833-9.833h8.604c.68 0 1.23.55 1.23 1.23V7.02c0 .679-.55 1.229-1.23 1.229Z"/></symbol>

<symbol id="share_icon" viewBox="0 0 20 21" fill="none">
    <path fill="#445C75" d="M16.262 21a3.634 3.634 0 0 1-2.909-1.399 3.615 3.615 0 0 1-.64-3.157L6.142 12.7a3.673 3.673 0 0 1-4.165.55 3.655 3.655 0 0 1 .88-6.814 3.67 3.67 0 0 1 3.89 1.585l5.963-3.401a3.646 3.646 0 0 1-.122-.89 3.707 3.707 0 0 1 7.091-1.533 3.69 3.69 0 0 1-1.224 4.502 3.712 3.712 0 0 1-4.668-.28l-6.455 3.68a3.491 3.491 0 0 1-.113.804l6.568 3.744a3.674 3.674 0 0 1 4.405-.419 3.654 3.654 0 0 1 1.602 4.115A3.666 3.666 0 0 1 16.262 21Zm0-5.234c-.87 0-1.574.703-1.574 1.57 0 .867.705 1.57 1.574 1.57.87 0 1.574-.703 1.574-1.57 0-.867-.705-1.57-1.574-1.57ZM3.67 8.439c-.87 0-1.574.703-1.574 1.57 0 .867.705 1.57 1.574 1.57.87 0 1.574-.703 1.574-1.57 0-.867-.705-1.57-1.574-1.57Zm12.592-6.281c-.87 0-1.574.703-1.574 1.57 0 .867.705 1.57 1.574 1.57.87 0 1.574-.703 1.574-1.57 0-.867-.705-1.57-1.574-1.57Z"/>
  </symbol>
</svg>




